<?xml version="1.0" encoding="UTF-8"?>
<svg width="29px" height="32px" viewBox="0 0 29 32" version="1.1" xmlns="http://www.w3.org/2000/svg" xmlns:xlink="http://www.w3.org/1999/xlink">
    <!-- Generator: sketchtool 56.2 (101010) - https://sketch.com -->
    <title>2110EE23-1487-45CA-B050-ACCA88261A91</title>
    <desc>Created with sketchtool.</desc>
    <defs>
        <polygon id="path-1" points="0 0.0843360431 28.6792088 0.0843360431 28.6792088 31.9120879 0 31.9120879"></polygon>
    </defs>
    <g id="Page-1" stroke="none" stroke-width="1" fill="none" fill-rule="evenodd">
        <g id="sign-up" transform="translate(-137.000000, -89.000000)">
            <g id="Group-8" transform="translate(137.000000, 89.000000)">
                <g id="Group-3" transform="translate(0.000000, 0.003604)">
                    <mask id="mask-2" fill="white">
                        <use xlink:href="#path-1"></use>
                    </mask>
                    <g id="Clip-2"></g>
                    <path d="M14.2988308,27.4690989 C21.3747868,27.6112527 27.3254681,21.6879121 27.4081934,14.5915604 C27.4925011,7.35279121 21.5852484,1.38848352 14.4174242,1.35058569 C7.1317978,1.31243956 1.32819341,7.28281319 1.26331429,14.2966154 C1.19562198,21.6090549 7.26445714,27.5820659 14.2988308,27.4690989 M25.8289407,1.16738462 C26.0858198,1.4290989 26.2876659,1.63481319 26.5344352,1.88624176 C25.986567,2.43481319 25.439578,2.97828571 24.8974242,3.52650549 C24.2045011,4.22716484 24.2675341,4.02953846 24.8734242,4.69723077 C26.9312703,6.96501099 28.1530725,9.60650549 28.5601934,12.6482637 C29.3127209,18.2698022 26.443622,24.0651429 21.4968088,26.8514286 C19.5681055,27.9377582 17.5153582,28.5997363 15.2979516,28.7101538 C14.9451604,28.7277363 14.8009846,28.8590769 14.8218198,29.218989 C14.8454681,29.6277802 14.8433582,30.0397363 14.8224352,30.4488791 C14.8050286,30.7893626 14.9215121,30.9109451 15.2742154,30.9043516 C16.3431385,30.8842198 17.4130286,30.9142857 18.4816879,30.8884396 C18.8882813,30.8785055 18.9673143,31.0354286 18.9693363,31.4023736 C18.9714462,31.7832088 18.8565451,31.9124396 18.467622,31.9105055 C15.7140396,31.8971429 12.9601934,31.895033 10.206611,31.9121164 C9.77144615,31.9147253 9.70595165,31.7342418 9.70331429,31.3607033 C9.70058901,30.9887473 9.82973187,30.883956 10.1883253,30.8902857 C11.2572484,30.9094505 12.3269626,30.8845714 13.3958857,30.9041758 C13.7456879,30.9105934 13.867622,30.7938462 13.8498637,30.4509011 C13.8285011,30.0419341 13.8270066,29.6298901 13.8503033,29.2210989 C13.8706989,28.8632967 13.7313582,28.7260659 13.3762813,28.7104176 C11.4177758,28.6243516 9.57654505,28.0849231 7.8328967,27.2085275 C6.5557978,26.5666813 5.40072088,25.7425055 4.38296264,24.7383736 C4.12054505,24.4794725 3.95913846,24.4885275 3.71263297,24.7496264 C3.13144615,25.3653626 2.52291868,25.9554286 1.90146813,26.580044 C1.66516044,26.3312527 1.45751209,26.1126154 1.19729231,25.8387692 C1.7863033,25.258022 2.36186374,24.6579341 2.97496264,24.0992527 C3.29970989,23.8032527 3.32713846,23.5925275 3.0423033,23.2370989 C1.31157802,21.0784176 0.314567033,18.5943736 0.0643692308,15.8552967 C-0.646487912,8.07041758 4.61461099,1.73134066 11.4684132,0.386989011 C15.7814681,-0.458901099 19.7155341,0.468395604 23.2048527,3.16835165 C23.485644,3.38567033 23.6573363,3.37573626 23.8981275,3.12193407 C24.5214242,2.46496703 25.1695121,1.83164835 25.8289407,1.16738462" id="Fill-1" fill="#000000" mask="url(#mask-2)"></path>
                </g>
                <path d="M5.18545934,13.7944264 C5.84216264,9.29930549 8.45737143,6.08330549 13.0305582,5.48207473 C13.4499868,5.42695385 13.8692396,5.3677011 14.2902505,5.32778901 C14.483833,5.30941538 14.7162725,5.25376703 14.7399209,5.58176703 C14.7605802,5.86844835 14.7059868,6.04972308 14.368844,6.09464615 C13.5029978,6.20981099 12.6190418,6.27301978 11.7814154,6.50071209 C9.11838242,7.22458022 7.41323956,9.00022857 6.49244835,11.5604044 C6.28066813,12.1493275 6.13323956,12.7629538 5.98106374,13.3714813 C5.8266022,13.9893275 5.84005275,13.9926681 5.18545934,13.7944264" id="Fill-4" fill="#000000"></path>
                <path d="M9.44945055,14.1098022 C9.66307692,12.3284396 10.4304615,10.9475165 12.060967,10.2257582 C12.8228132,9.88852747 13.6748571,9.74918681 14.4942857,9.5549011 C14.6093626,9.52764835 14.8543736,9.67041758 14.8941978,9.78487912 C14.9701538,10.0035165 14.9509011,10.2205714 14.599956,10.2799121 C13.9843956,10.384 13.3601319,10.4991648 12.7751648,10.7089231 C11.3305934,11.2269011 10.5085275,12.2825495 10.2396044,13.7954286 C10.1977582,14.0308571 10.3501099,14.4338462 9.87907692,14.4716484 C9.5683956,14.4965275 9.38905495,14.4046593 9.44945055,14.1098022" id="Fill-6" fill="#000000"></path>
            </g>
        </g>
    </g>
</svg>